# xmcd
#
# Track frame offsets: 
#        150
#        14618
#        34238
#        51842
#        80225
#        102913
#        128239
#        181162
#
# Disc length: 2800 seconds
#
# Revision: 0
# Processed by: cddbd v1.5.2PL0 Copyright (c) Steve Scherf et al.
# Submitted via: ExactAudioCopy v0.99pb5
#
DISCID=690aee08
DTITLE=The Black Crowes - Sam Houston Coliseum, Febryart 6th
DYEAR=1993
DGENRE=Blues
TTITLE0=Black Moon Creeping
TTITLE1=Thick And Thin
TTITLE2=Hotel Illness
TTITLE3=Stare It Cold
TTITLE4=Three Little Birds
TTITLE5=Sometimes Salvation
TTITLE6=Jealous Again
TTITLE7=Remedy
EXTD=
EXTT0=
EXTT1=
EXTT2=
EXTT3=
EXTT4=
EXTT5=
EXTT6=
EXTT7=
PLAYORDER=
